<svg width="167.0869141" height="242.66699219999998" xmlns="http://www.w3.org/2000/svg">
 <metadata id="metadata43">image/svg+xml</metadata>
 <defs>
  <filter id="Layer_x0020_1_blur" x="-50%" y="-50%" width="200%" height="200%">
   <feGaussianBlur stdDeviation="0"/>
  </filter>
 </defs>
 <g>
  <title>background</title>
  <rect fill="none" id="canvas_background" height="244.666992" width="169.086914" y="-1" x="-1"/>
 </g>
 <g>
  <title>Layer 1</title>
  <g fill-rule="nonzero" clip-rule="nonzero" stroke-miterlimit="4" id="Layer_x0020_1" fill-opacity="0.19" stroke="#000000" filter="url(#Layer_x0020_1_blur)" stroke-opacity="0.45">
   <path fill="#ffffff" stroke-width="2" id="path5" d="m166.58691,236.08142c0,3.78993 -3.08691,6.89202 -6.87109,6.89202l-152.85498,0c-3.7749,0 -6.86084,-3.10209 -6.86084,-6.89202l0,-229.18842c0,-3.78993 3.08594,-6.893 6.86084,-6.893l152.85498,0c3.78418,0 6.87109,3.10307 6.87109,6.893l0,229.18842z" stroke="#000000"/>
   <g id="g7" stroke="null">
    <g id="g9" stroke="null"/>
   </g>
   <g id="g15" stroke="null"/>
   <g id="g19" stroke="null"/>
   <g id="g23" stroke="null">
    <g id="g25" stroke="null"/>
   </g>
   <g id="g31" stroke="null">
    <g id="g33" stroke="null"/>
   </g>
  </g>
  <ellipse fill="#ffffff" stroke="#000000" stroke-width="2" stroke-opacity="0.45" fill-opacity="0.19" cx="147.172367" cy="171.041062" id="svg_2"/>
  <path id="svg_1" d="m83.210285,74.518508c4.436719,0.00561 8.6752,0.773811 12.689239,2.057176l-3.176822,5.494412l22.550284,0l-5.639013,-9.765949l-5.634709,-9.763029l-2.966156,5.14449c-5.559047,-2.032403 -11.55191,-3.169849 -17.818782,-3.169849c-28.84595,0 -52.226498,23.382017 -52.226498,52.227857c0,11.971972 4.071838,22.971593 10.848272,31.784529l7.941309,-6.097322c-5.480591,-7.122064 -8.775823,-16.009407 -8.793702,-25.684325c0.039916,-23.321481 18.907979,-42.192234 42.226574,-42.227992l0.000004,0zm41.383731,10.451594l-7.941292,6.100242c5.47921,7.119353 8.774459,16.001095 8.789536,25.678887c-0.03992,23.321289 -18.907979,42.189343 -42.227929,42.227774c-4.132432,-0.005342 -8.085898,-0.677284 -11.854817,-1.801017l2.989494,-5.169422l-22.550184,0l5.634843,9.760544l5.638909,9.774005l3.143775,-5.455696c5.331819,1.856135 11.038186,2.891665 16.997981,2.894359c28.850112,-0.005375 52.226648,-23.387413 52.233425,-52.233275c-0.006777,-11.971947 -4.08151,-22.968882 -10.85374,-31.776397l0,-0.000004z" stroke-width="0" stroke="#121418" fill="#1d222a"/>
 </g>
</svg>